# xmcd CD database file
#
# Track frame offsets:
#	150
#	12160
#	26423
#	39997
#	54639
#	68229
#	81654
#	101448
#	117714
#	131848
#	146629
#	159114
#	173558
#	187537
#	199681
#	214254
#	229180
#
# Disc length: 3241 seconds
#
# Revision: 0
# Processed by: cddbd v1.5.2PL0 Copyright (c) Steve Scherf et al.
# Submitted via: CDex 1.50
#
DISCID=e50ca711
DTITLE=Various Artist - 016 - Tom Astor - Take it Easy - Die Collection - CD - 01
DYEAR=2008
DGENRE=Country
TTITLE0=Hallo , Guten Morgen Deutschland
TTITLE1=Take it Easy - nimms leicht
TTITLE2=Alter Freund , überhol dich nicht selber
TTITLE3=Ein Brief aus Kalifornien
TTITLE4=Kleiner Rebell
TTITLE5=Redneck Riviera
TTITLE6=Daddy , wenn ich groß bin fahr' ich Dieseli
TTITLE7=Junger Adler
TTITLE8=Sie ist wie ein neues Leben
TTITLE9=Ich will zurück zu mir
TTITLE10=What I've got in Mind
TTITLE11=Alles Gute
TTITLE12=Hautnah
TTITLE13=Danke , Johnny Cash
TTITLE14=Hey Darling
TTITLE15=Dieses Lied ist für die Mädchen
TTITLE16=Du bist da ( wenn's drum geht )
EXTD=YEAR: 2008
EXTT0=
EXTT1=
EXTT2=
EXTT3=
EXTT4=
EXTT5=
EXTT6=
EXTT7=
EXTT8=
EXTT9=
EXTT10=
EXTT11=
EXTT12=
EXTT13=
EXTT14=
EXTT15=
EXTT16=
PLAYORDER=
